Coordinates
version=1
nRows=22
nColumns=24
inDegrees=yes

Units are S.I. units (second, meters, Newtons, ...)
Angles are in degrees.

endheader
time	pelvis_tilt	pelvis_list	pelvis_rotation	pelvis_tx	pelvis_ty	pelvis_tz	hip_flexion_r	hip_adduction_r	hip_rotation_r	knee_angle_r	ankle_angle_r	subtalar_angle_r	mtp_angle_r	hip_flexion_l	hip_adduction_l	hip_rotation_l	knee_angle_l	ankle_angle_l	subtalar_angle_l	mtp_angle_l	lumbar_extension	lumbar_bending	lumbar_rotation
      3.55000000	     -6.42257992	      3.74595947	      3.95736756	     -1.05221246	     -0.03705436	     -0.22868496	     38.28103517	     -3.11244743	     -2.64848293	    -19.03362382	      1.73539951	      8.45605051	     11.11404196	     -7.95244944	      4.71657628	    -10.84200886	    -24.62025300	     12.60401620	     25.68683179	     -3.34886406	      4.43737026	     -5.43527382	     -8.43352125
      3.55500000	     -6.39968639	      3.45109905	      3.97821754	     -1.04416673	     -0.03745653	     -0.22771431	     38.13736914	     -2.64975099	     -2.47838619	    -19.86391170	      1.53727421	      8.39093448	     10.15366204	     -7.87897635	      4.05595268	    -11.00738615	    -25.63229644	     11.08960353	     25.92334209	     -0.71265080	      4.62273457	     -5.11255759	     -8.35878671
      3.56000000	     -6.40395054	      3.12026671	      3.93641402	     -1.03609826	     -0.03781971	     -0.22671839	     37.98418384	     -2.11481498	     -2.19148265	    -20.44814763	      0.60609305	      7.92323224	     10.87012969	     -7.74370377	      3.35998826	    -11.23816439	    -26.60965431	      9.20160945	     26.04722381	      2.86406532	      4.84429717	     -4.73135089	     -8.23662696
      3.56500000	     -6.42154041	      2.76810354	      3.87419360	     -1.02806092	     -0.03815631	     -0.22560897	     37.88302982	     -1.52541874	     -1.87967393	    -21.14988583	     -0.08865590	      7.64539521	     10.60391068	     -7.53073232	      2.61649672	    -11.50649554	    -27.64456803	      7.12233529	     26.13474939	      6.66792381	      5.07655289	     -4.34118907	     -8.07106928
      3.57000000	     -6.46430133	      2.38119618	      3.77937902	     -1.02004418	     -0.03846285	     -0.22443255	     37.80471588	     -0.86597702	     -1.47251948	    -21.80137224	     -0.93729634	      7.26810573	     10.47833616	     -7.22730255	      1.82818002	    -11.77008692	    -28.76172501	      4.93177613	     26.15835425	     10.23853762	      5.32944659	     -3.91168665	     -7.85671798
      3.57500000	     -6.51376590	      2.01120936	      3.58341896	     -1.01213711	     -0.03881606	     -0.22310841	     37.78637659	     -0.12712196	     -0.85665200	    -22.52776084	     -1.80158624	      6.77863066	     10.02413502	     -6.85717565	      1.05962607	    -12.09311099	    -29.98631123	      2.72629312	     26.10694120	     13.17694954	      5.56797482	     -3.47626118	     -7.49557522
      3.58000000	     -6.61045935	      1.54146434	      3.55585568	     -1.00409017	     -0.03905341	     -0.22200810	     37.75241999	      0.57143495	     -0.53190542	    -23.20236866	     -2.46269970	      6.57114966	      9.59251781	     -6.38337385	      0.17627689	    -12.17085689	    -31.16107613	      0.08766089	     25.86433877	     16.98453588	      5.88635024	     -2.97334505	     -7.41965317
      3.58500000	     -6.69608861	      1.10476737	      3.37073950	     -0.99613343	     -0.03936585	     -0.22068802	     37.75132315	      1.36609901	      0.01887409	    -23.92785878	     -3.16752500	      6.19696562	      9.07061166	     -5.87274497	     -0.67418308	    -12.41027509	    -32.46115508	     -2.50252226	     25.57769546	     19.70825033	      6.17399256	     -2.47239119	     -7.09648612
      3.59000000	     -6.84966936	      0.64811369	      3.23892234	     -0.98822504	     -0.03974398	     -0.21943023	     37.81501515	      2.14201366	      0.50210761	    -24.65876807	     -3.80174470	      5.79071209	      8.57024929	     -5.20653492	     -1.53020216	    -12.48512459	    -33.85644923	     -5.17208658	     25.10185129	     21.98403222	      6.52943487	     -1.96966121	     -6.87277375
      3.59500000	     -6.95996194	      0.19452005	      3.12365939	     -0.98039362	     -0.04005899	     -0.21824223	     37.81401531	      2.89441363	      0.93103234	    -25.37053016	     -4.34623380	      5.35868938	      8.13465583	     -4.52950666	     -2.35526882	    -12.44239284	    -35.28009991	     -8.00765995	     24.35872716	     23.82636136	      6.82091218	     -1.46483563	     -6.67569167
      3.60000000	     -7.05085542	     -0.22241268	      3.00256178	     -0.97274190	     -0.04039659	     -0.21705092	     37.79519733	      3.61013374	      1.36318973	    -26.07943489	     -4.81191174	      4.88511186	      7.83392255	     -3.79152287	     -3.12574502	    -12.36513995	    -36.81693909	    -10.81306364	     23.43796400	     24.66232060	      7.04645269	     -1.01014883	     -6.53417952
      3.60500000	     -7.09876972	     -0.66686811	      2.86656363	     -0.96500042	     -0.04065286	     -0.21596213	     37.67959776	      4.32585217	      1.62595884	    -26.71224562	     -5.13626169	      4.42319264	      7.65809770	     -3.08013997	     -3.87275267	    -12.18071361	    -38.35272180	    -13.63738361	     22.31106804	     24.65906124	      7.25253786	     -0.49365617	     -6.28639700
      3.61000000	     -7.17299262	     -1.13608240	      2.68753298	     -0.95737213	     -0.04099877	     -0.21478255	     37.57901785	      5.07725080	      1.85401790	    -27.30310124	     -5.39511726	      3.97948659	      7.58178181	     -2.27846880	     -4.65915409	    -12.09680075	    -39.95181271	    -16.45979241	     21.03100830	     24.41243142	      7.46614346	      0.04309996	     -6.03919370
      3.61500000	     -7.20450928	     -1.68082555	      2.48798688	     -0.94974590	     -0.04132556	     -0.21361480	     37.38666431	      5.88705605	      1.95393558	    -27.81321982	     -5.50996141	      3.62795805	      7.58257231	     -1.48466003	     -5.52762581	    -12.06543381	    -41.58606915	    -19.19589702	     19.58433740	     23.76783835	      7.63745048	      0.66660131	     -5.78837655
      3.62000000	     -7.32029900	     -2.07339824	      2.27896099	     -0.94239118	     -0.04167151	     -0.21234256	     37.28970578	      6.56967266	      2.13119569	    -28.30277273	     -5.72225408	      3.02611098	      7.76656252	     -0.53812227	     -6.17416043	    -11.89838660	    -43.21423550	    -21.95906533	     17.86154173	     22.54798636	      7.84658115	      1.10032090	     -5.51008311
      3.62500000	     -7.50363325	     -2.54692605	      2.00400456	     -0.93509318	     -0.04215425	     -0.21117978	     37.22531920	      7.30246613	      2.18398413	    -28.64298571	     -6.00831296	      2.56804050	      8.82889563	      0.56813802	     -6.91047934	    -11.86638496	    -45.11166239	    -23.95189487	     16.22381784	     19.28890376	      8.12541984	      1.66647815	     -5.16831143
      3.63000000	     -7.54866885	     -3.05598547	      1.75148201	     -0.92784920	     -0.04241421	     -0.20996219	     36.94465180	      8.08167074	      2.23031365	    -28.90445450	     -6.11941689	      2.07747987	      9.48323760	      1.54537001	     -7.68738666	    -11.81169485	    -46.95392456	    -25.79445386	     14.45630752	     15.99301993	      8.24303962	      2.24963161	     -4.86633457
      3.63500000	     -7.62355326	     -3.56138237	      1.49110747	     -0.92071459	     -0.04266527	     -0.20873087	     36.66823837	      8.85253030	      2.23986199	    -29.10785894	     -6.16245777	      1.63026649	     10.16762253	      2.60052337	     -8.45218881	    -11.75451640	    -48.83034388	    -27.25563640	     12.65247511	     12.30803289	      8.37768125	      2.82286318	     -4.56213202
      3.64000000	     -7.67805940	     -4.07458829	      1.22511631	     -0.91366351	     -0.04283404	     -0.20749362	     36.32556116	      9.63997170	      2.26893022	    -29.23477565	     -6.17398478	      1.15252190	     10.81134197	      3.66800012	     -9.22286793	    -11.70511936	    -50.72270796	    -28.28830142	     10.86502895	      8.31687162	      8.47752428	      3.40367164	     -4.24530182
      3.64500000	     -7.73647041	     -4.57140434	      0.95482416	     -0.90668865	     -0.04292757	     -0.20626004	     35.94825261	     10.41811553	      2.33084172	    -29.30199357	     -6.14549303	      0.66284078	     11.35573662	      4.76358259	     -9.96172950	    -11.64038466	    -52.60249743	    -28.88639688	      9.11286035	      4.23942469	      8.56820224	      3.96073666	     -3.93788152
      3.65000000	     -7.78270164	     -5.05483923	      0.69182003	     -0.89979935	     -0.04291871	     -0.20505788	     35.52276479	     11.18340409	      2.40997119	    -29.31795401	     -6.08728293	      0.15668722	     11.75890970	      5.87357655	    -10.67203144	    -11.55258117	    -54.46136519	    -29.06098303	      7.45698213	      0.22290367	      8.63518556	      4.50438585	     -3.63034227
      3.65500000	     -7.82370357	     -5.51537219	      0.43530458	     -0.89297992	     -0.04278333	     -0.20390719	     35.05594439	     11.92104040	      2.50384762	    -29.28462782	     -5.99984572	     -0.32332227	     12.01025428	      6.99543474	    -11.32909751	    -11.42496985	    -56.26787878	    -28.85108444	      5.90974819	     -3.57682269	      8.68516353	      5.02314043	     -3.31770139
